<mxfile host="app.diagrams.net" modified="2023-04-15T10:25:30.555Z" agent="Mozilla/5.0 (X11; Linux x86_64; rv:109.0) Gecko/20100101 Firefox/111.0" etag="1nnm99kXAmep3TEH7lRD" version="21.1.1" type="device">
  <diagram name="Page-1" id="XTqGeUsufdwXZ2VVG0b4">
    <mxGraphModel dx="714" dy="720" grid="1" gridSize="10" guides="1" tooltips="1" connect="1" arrows="1" fold="1" page="1" pageScale="1" pageWidth="850" pageHeight="1100" math="0" shadow="0">
      <root>
        <mxCell id="0" />
        <mxCell id="1" parent="0" />
        <mxCell id="j0p45LcPTZqPPM3QsHyj-15" style="edgeStyle=orthogonalEdgeStyle;rounded=0;orthogonalLoop=1;jettySize=auto;html=1;entryX=0;entryY=0.25;entryDx=0;entryDy=0;" parent="1" source="j0p45LcPTZqPPM3QsHyj-1" target="j0p45LcPTZqPPM3QsHyj-3" edge="1">
          <mxGeometry relative="1" as="geometry">
            <Array as="points">
              <mxPoint x="160" y="255" />
              <mxPoint x="160" y="255" />
            </Array>
          </mxGeometry>
        </mxCell>
        <mxCell id="j0p45LcPTZqPPM3QsHyj-1" value="empty" style="rounded=1;whiteSpace=wrap;html=1;" parent="1" vertex="1">
          <mxGeometry y="240" width="120" height="60" as="geometry" />
        </mxCell>
        <mxCell id="j0p45LcPTZqPPM3QsHyj-16" style="edgeStyle=orthogonalEdgeStyle;rounded=0;orthogonalLoop=1;jettySize=auto;html=1;entryX=1;entryY=0.75;entryDx=0;entryDy=0;" parent="1" source="j0p45LcPTZqPPM3QsHyj-3" target="j0p45LcPTZqPPM3QsHyj-1" edge="1">
          <mxGeometry relative="1" as="geometry">
            <Array as="points">
              <mxPoint x="220" y="285" />
              <mxPoint x="220" y="285" />
            </Array>
          </mxGeometry>
        </mxCell>
        <mxCell id="j0p45LcPTZqPPM3QsHyj-21" style="edgeStyle=orthogonalEdgeStyle;rounded=0;orthogonalLoop=1;jettySize=auto;html=1;entryX=0;entryY=0.25;entryDx=0;entryDy=0;" parent="1" target="j0p45LcPTZqPPM3QsHyj-4" edge="1">
          <mxGeometry relative="1" as="geometry">
            <Array as="points">
              <mxPoint x="639" y="255" />
              <mxPoint x="639" y="255" />
            </Array>
            <mxPoint x="599" y="255" as="sourcePoint" />
          </mxGeometry>
        </mxCell>
        <mxCell id="x3645w0vxeoozK36OR6a-8" style="edgeStyle=orthogonalEdgeStyle;rounded=0;orthogonalLoop=1;jettySize=auto;html=1;entryX=0;entryY=0.25;entryDx=0;entryDy=0;" edge="1" parent="1" source="j0p45LcPTZqPPM3QsHyj-3" target="x3645w0vxeoozK36OR6a-1">
          <mxGeometry relative="1" as="geometry">
            <Array as="points">
              <mxPoint x="400" y="255" />
              <mxPoint x="400" y="255" />
            </Array>
          </mxGeometry>
        </mxCell>
        <mxCell id="j0p45LcPTZqPPM3QsHyj-3" value="&lt;div&gt;filled&lt;/div&gt;(size=1)" style="rounded=1;whiteSpace=wrap;html=1;" parent="1" vertex="1">
          <mxGeometry x="240" y="240" width="120" height="60" as="geometry" />
        </mxCell>
        <mxCell id="j0p45LcPTZqPPM3QsHyj-23" style="edgeStyle=orthogonalEdgeStyle;rounded=0;orthogonalLoop=1;jettySize=auto;html=1;entryX=1;entryY=0.75;entryDx=0;entryDy=0;" parent="1" source="j0p45LcPTZqPPM3QsHyj-4" edge="1">
          <mxGeometry relative="1" as="geometry">
            <Array as="points">
              <mxPoint x="699" y="285" />
              <mxPoint x="699" y="285" />
            </Array>
            <mxPoint x="599" y="285" as="targetPoint" />
          </mxGeometry>
        </mxCell>
        <mxCell id="WIsmNGodGTIfDtEzCB5h-5" style="edgeStyle=orthogonalEdgeStyle;rounded=0;orthogonalLoop=1;jettySize=auto;html=1;exitX=0.75;exitY=1;exitDx=0;exitDy=0;entryX=0.25;entryY=0;entryDx=0;entryDy=0;" parent="1" source="j0p45LcPTZqPPM3QsHyj-4" target="j0p45LcPTZqPPM3QsHyj-4" edge="1">
          <mxGeometry relative="1" as="geometry">
            <mxPoint x="749" y="230" as="targetPoint" />
            <Array as="points">
              <mxPoint x="809" y="180" />
              <mxPoint x="749" y="180" />
            </Array>
          </mxGeometry>
        </mxCell>
        <mxCell id="j0p45LcPTZqPPM3QsHyj-4" value="&lt;div&gt;full&lt;/div&gt;(size=3)" style="rounded=1;whiteSpace=wrap;html=1;" parent="1" vertex="1">
          <mxGeometry x="719" y="240" width="120" height="60" as="geometry" />
        </mxCell>
        <mxCell id="j0p45LcPTZqPPM3QsHyj-8" style="edgeStyle=orthogonalEdgeStyle;rounded=0;orthogonalLoop=1;jettySize=auto;html=1;entryX=0.5;entryY=0;entryDx=0;entryDy=0;" parent="1" source="j0p45LcPTZqPPM3QsHyj-7" target="j0p45LcPTZqPPM3QsHyj-1" edge="1">
          <mxGeometry relative="1" as="geometry" />
        </mxCell>
        <mxCell id="j0p45LcPTZqPPM3QsHyj-7" value="&lt;div&gt;init&lt;/div&gt;(capacity=3)" style="text;html=1;align=center;verticalAlign=middle;resizable=0;points=[];autosize=1;strokeColor=none;fillColor=none;" parent="1" vertex="1">
          <mxGeometry x="15" y="125" width="90" height="40" as="geometry" />
        </mxCell>
        <mxCell id="j0p45LcPTZqPPM3QsHyj-17" value="enqueue" style="text;html=1;align=center;verticalAlign=middle;resizable=0;points=[];autosize=1;strokeColor=none;fillColor=none;" parent="1" vertex="1">
          <mxGeometry x="140" y="230" width="70" height="30" as="geometry" />
        </mxCell>
        <mxCell id="j0p45LcPTZqPPM3QsHyj-18" value="&lt;div&gt;dequeue&lt;/div&gt;" style="text;html=1;align=center;verticalAlign=middle;resizable=0;points=[];autosize=1;strokeColor=none;fillColor=none;" parent="1" vertex="1">
          <mxGeometry x="140" y="285" width="70" height="30" as="geometry" />
        </mxCell>
        <mxCell id="j0p45LcPTZqPPM3QsHyj-22" value="&lt;div&gt;enqueue&lt;/div&gt;" style="text;html=1;align=center;verticalAlign=middle;resizable=0;points=[];autosize=1;strokeColor=none;fillColor=none;" parent="1" vertex="1">
          <mxGeometry x="624" y="215" width="70" height="30" as="geometry" />
        </mxCell>
        <mxCell id="j0p45LcPTZqPPM3QsHyj-24" value="dequeue" style="text;html=1;align=center;verticalAlign=middle;resizable=0;points=[];autosize=1;strokeColor=none;fillColor=none;" parent="1" vertex="1">
          <mxGeometry x="624" y="285" width="70" height="30" as="geometry" />
        </mxCell>
        <mxCell id="WIsmNGodGTIfDtEzCB5h-6" value="enqueue" style="text;html=1;align=center;verticalAlign=middle;resizable=0;points=[];autosize=1;strokeColor=none;fillColor=none;" parent="1" vertex="1">
          <mxGeometry x="744" y="150" width="70" height="30" as="geometry" />
        </mxCell>
        <mxCell id="x3645w0vxeoozK36OR6a-9" style="edgeStyle=orthogonalEdgeStyle;rounded=0;orthogonalLoop=1;jettySize=auto;html=1;entryX=1;entryY=0.75;entryDx=0;entryDy=0;" edge="1" parent="1" source="x3645w0vxeoozK36OR6a-1" target="j0p45LcPTZqPPM3QsHyj-3">
          <mxGeometry relative="1" as="geometry">
            <Array as="points">
              <mxPoint x="440" y="285" />
              <mxPoint x="440" y="285" />
            </Array>
          </mxGeometry>
        </mxCell>
        <mxCell id="x3645w0vxeoozK36OR6a-1" value="&lt;div&gt;filled&lt;/div&gt;(size=2)" style="rounded=1;whiteSpace=wrap;html=1;" vertex="1" parent="1">
          <mxGeometry x="479" y="240" width="120" height="60" as="geometry" />
        </mxCell>
        <mxCell id="x3645w0vxeoozK36OR6a-4" value="enqueue" style="text;html=1;align=center;verticalAlign=middle;resizable=0;points=[];autosize=1;strokeColor=none;fillColor=none;" vertex="1" parent="1">
          <mxGeometry x="380" y="227.5" width="70" height="30" as="geometry" />
        </mxCell>
        <mxCell id="x3645w0vxeoozK36OR6a-5" value="&lt;div&gt;dequeue&lt;/div&gt;" style="text;html=1;align=center;verticalAlign=middle;resizable=0;points=[];autosize=1;strokeColor=none;fillColor=none;" vertex="1" parent="1">
          <mxGeometry x="380" y="282.5" width="70" height="30" as="geometry" />
        </mxCell>
      </root>
    </mxGraphModel>
  </diagram>
</mxfile>
